<?xml version="1.0" encoding="utf-8" standalone="no"?>
<!DOCTYPE svg PUBLIC "-//W3C//DTD SVG 1.1//EN"
  "http://www.w3.org/Graphics/SVG/1.1/DTD/svg11.dtd">
<svg xmlns:xlink="http://www.w3.org/1999/xlink" width="730.128125pt" height="401.858125pt" viewBox="0 0 730.128125 401.858125" xmlns="http://www.w3.org/2000/svg" version="1.1">
 <metadata>
  <rdf:RDF xmlns:dc="http://purl.org/dc/elements/1.1/" xmlns:cc="http://creativecommons.org/ns#" xmlns:rdf="http://www.w3.org/1999/02/22-rdf-syntax-ns#">
   <cc:Work>
    <dc:type rdf:resource="http://purl.org/dc/dcmitype/StillImage"/>
    <dc:date>2026-05-02T07:59:45.257441</dc:date>
    <dc:format>image/svg+xml</dc:format>
    <dc:creator>
     <cc:Agent>
      <dc:title>Matplotlib v3.10.8, https://matplotlib.org/</dc:title>
     </cc:Agent>
    </dc:creator>
   </cc:Work>
  </rdf:RDF>
 </metadata>
 <defs>
  <style type="text/css">*{stroke-linejoin: round; stroke-linecap: butt}</style>
 </defs>
 <g id="figure_1">
  <g id="patch_1">
   <path d="M 0 401.858125 
L 730.128125 401.858125 
L 730.128125 0 
L 0 0 
z
" style="fill: #ffffff"/>
  </g>
  <g id="axes_1">
   <g id="patch_2">
    <path d="M 53.328125 341.998125 
L 722.928125 341.998125 
L 722.928125 22.318125 
L 53.328125 22.318125 
z
" style="fill: #ffffff"/>
   </g>
   <g id="patch_3">
    <path d="M 83.764489 341.998125 
L 119.053026 341.998125 
L 119.053026 339.490044 
L 83.764489 339.490044 
z
" clip-path="url(#p984b9caec9)" style="fill: #1f77b4"/>
   </g>
   <g id="patch_4">
    <path d="M 127.875161 341.998125 
L 163.163698 341.998125 
L 163.163698 266.705534 
L 127.875161 266.705534 
z
" clip-path="url(#p984b9caec9)" style="fill: #1f77b4"/>
   </g>
   <g id="patch_5">
    <path d="M 171.985833 341.998125 
L 207.27437 341.998125 
L 207.27437 234.551936 
L 171.985833 234.551936 
z
" clip-path="url(#p984b9caec9)" style="fill: #1f77b4"/>
   </g>
   <g id="patch_6">
    <path d="M 216.096504 341.998125 
L 251.385042 341.998125 
L 251.385042 261.839857 
L 216.096504 261.839857 
z
" clip-path="url(#p984b9caec9)" style="fill: #1f77b4"/>
   </g>
   <g id="patch_7">
    <path d="M 260.207176 341.998125 
L 295.495714 341.998125 
L 295.495714 281.854343 
L 260.207176 281.854343 
z
" clip-path="url(#p984b9caec9)" style="fill: #1f77b4"/>
   </g>
   <g id="patch_8">
    <path d="M 304.317848 341.998125 
L 339.606386 341.998125 
L 339.606386 226.977532 
L 304.317848 226.977532 
z
" clip-path="url(#p984b9caec9)" style="fill: #1f77b4"/>
   </g>
   <g id="patch_9">
    <path d="M 348.42852 341.998125 
L 383.717058 341.998125 
L 383.717058 246.13927 
L 348.42852 246.13927 
z
" clip-path="url(#p984b9caec9)" style="fill: #1f77b4"/>
   </g>
   <g id="patch_10">
    <path d="M 392.539192 341.998125 
L 427.82773 341.998125 
L 427.82773 334.022428 
L 392.539192 334.022428 
z
" clip-path="url(#p984b9caec9)" style="fill: #1f77b4"/>
   </g>
   <g id="patch_11">
    <path d="M 436.649864 341.998125 
L 471.938402 341.998125 
L 471.938402 282.05499 
L 436.649864 282.05499 
z
" clip-path="url(#p984b9caec9)" style="fill: #1f77b4"/>
   </g>
   <g id="patch_12">
    <path d="M 480.760536 341.998125 
L 516.049074 341.998125 
L 516.049074 336.58067 
L 480.760536 336.58067 
z
" clip-path="url(#p984b9caec9)" style="fill: #1f77b4"/>
   </g>
   <g id="patch_13">
    <path d="M 524.871208 341.998125 
L 560.159746 341.998125 
L 560.159746 319.325073 
L 524.871208 319.325073 
z
" clip-path="url(#p984b9caec9)" style="fill: #1f77b4"/>
   </g>
   <g id="patch_14">
    <path d="M 568.98188 341.998125 
L 604.270417 341.998125 
L 604.270417 336.079054 
L 568.98188 336.079054 
z
" clip-path="url(#p984b9caec9)" style="fill: #1f77b4"/>
   </g>
   <g id="patch_15">
    <path d="M 613.092552 341.998125 
L 648.381089 341.998125 
L 648.381089 341.396186 
L 613.092552 341.396186 
z
" clip-path="url(#p984b9caec9)" style="fill: #1f77b4"/>
   </g>
   <g id="patch_16">
    <path d="M 657.203224 341.998125 
L 692.491761 341.998125 
L 692.491761 230.789815 
L 657.203224 230.789815 
z
" clip-path="url(#p984b9caec9)" style="fill: #1f77b4"/>
   </g>
   <g id="patch_17">
    <path d="M 83.764489 339.490044 
L 119.053026 339.490044 
L 119.053026 339.088751 
L 83.764489 339.088751 
z
" clip-path="url(#p984b9caec9)" style="fill: #ff7f0e"/>
   </g>
   <g id="patch_18">
    <path d="M 127.875161 266.705534 
L 163.163698 266.705534 
L 163.163698 243.681351 
L 127.875161 243.681351 
z
" clip-path="url(#p984b9caec9)" style="fill: #ff7f0e"/>
   </g>
   <g id="patch_19">
    <path d="M 171.985833 234.551936 
L 207.27437 234.551936 
L 207.27437 234.501775 
L 171.985833 234.501775 
z
" clip-path="url(#p984b9caec9)" style="fill: #ff7f0e"/>
   </g>
   <g id="patch_20">
    <path d="M 216.096504 261.839857 
L 251.385042 261.839857 
L 251.385042 219.603774 
L 216.096504 219.603774 
z
" clip-path="url(#p984b9caec9)" style="fill: #ff7f0e"/>
   </g>
   <g id="patch_21">
    <path d="M 260.207176 281.854343 
L 295.495714 281.854343 
L 295.495714 238.314058 
L 260.207176 238.314058 
z
" clip-path="url(#p984b9caec9)" style="fill: #ff7f0e"/>
   </g>
   <g id="patch_22">
    <path d="M 304.317848 226.977532 
L 339.606386 226.977532 
L 339.606386 25.929762 
L 304.317848 25.929762 
z
" clip-path="url(#p984b9caec9)" style="fill: #ff7f0e"/>
   </g>
   <g id="patch_23">
    <path d="M 348.42852 246.13927 
L 383.717058 246.13927 
L 383.717058 26.030085 
L 348.42852 26.030085 
z
" clip-path="url(#p984b9caec9)" style="fill: #ff7f0e"/>
   </g>
   <g id="patch_24">
    <path d="M 392.539192 334.022428 
L 427.82773 334.022428 
L 427.82773 314.459396 
L 392.539192 314.459396 
z
" clip-path="url(#p984b9caec9)" style="fill: #ff7f0e"/>
   </g>
   <g id="patch_25">
    <path d="M 436.649864 282.05499 
L 471.938402 282.05499 
L 471.938402 246.74121 
L 436.649864 246.74121 
z
" clip-path="url(#p984b9caec9)" style="fill: #ff7f0e"/>
   </g>
   <g id="patch_26">
    <path d="M 480.760536 336.58067 
L 516.049074 336.58067 
L 516.049074 326.297538 
L 480.760536 326.297538 
z
" clip-path="url(#p984b9caec9)" style="fill: #ff7f0e"/>
   </g>
   <g id="patch_27">
    <path d="M 524.871208 319.325073 
L 560.159746 319.325073 
L 560.159746 220.155552 
L 524.871208 220.155552 
z
" clip-path="url(#p984b9caec9)" style="fill: #ff7f0e"/>
   </g>
   <g id="patch_28">
    <path d="M 568.98188 336.079054 
L 604.270417 336.079054 
L 604.270417 316.867154 
L 568.98188 316.867154 
z
" clip-path="url(#p984b9caec9)" style="fill: #ff7f0e"/>
   </g>
   <g id="patch_29">
    <path d="M 613.092552 341.396186 
L 648.381089 341.396186 
L 648.381089 340.844408 
L 613.092552 340.844408 
z
" clip-path="url(#p984b9caec9)" style="fill: #ff7f0e"/>
   </g>
   <g id="patch_30">
    <path d="M 657.203224 230.789815 
L 692.491761 230.789815 
L 692.491761 33.30352 
L 657.203224 33.30352 
z
" clip-path="url(#p984b9caec9)" style="fill: #ff7f0e"/>
   </g>
   <g id="patch_31">
    <path d="M 83.764489 339.088751 
L 119.053026 339.088751 
L 119.053026 339.088751 
L 83.764489 339.088751 
z
" clip-path="url(#p984b9caec9)" style="fill: #2ca02c"/>
   </g>
   <g id="patch_32">
    <path d="M 127.875161 243.681351 
L 163.163698 243.681351 
L 163.163698 241.975856 
L 127.875161 241.975856 
z
" clip-path="url(#p984b9caec9)" style="fill: #2ca02c"/>
   </g>
   <g id="patch_33">
    <path d="M 171.985833 234.501775 
L 207.27437 234.501775 
L 207.27437 234.501775 
L 171.985833 234.501775 
z
" clip-path="url(#p984b9caec9)" style="fill: #2ca02c"/>
   </g>
   <g id="patch_34">
    <path d="M 216.096504 219.603774 
L 251.385042 219.603774 
L 251.385042 218.399895 
L 216.096504 218.399895 
z
" clip-path="url(#p984b9caec9)" style="fill: #2ca02c"/>
   </g>
   <g id="patch_35">
    <path d="M 260.207176 238.314058 
L 295.495714 238.314058 
L 295.495714 237.160341 
L 260.207176 237.160341 
z
" clip-path="url(#p984b9caec9)" style="fill: #2ca02c"/>
   </g>
   <g id="patch_36">
    <path d="M 304.317848 25.929762 
L 339.606386 25.929762 
L 339.606386 22.719418 
L 304.317848 22.719418 
z
" clip-path="url(#p984b9caec9)" style="fill: #2ca02c"/>
   </g>
   <g id="patch_37">
    <path d="M 348.42852 26.030085 
L 383.717058 26.030085 
L 383.717058 24.374751 
L 348.42852 24.374751 
z
" clip-path="url(#p984b9caec9)" style="fill: #2ca02c"/>
   </g>
   <g id="patch_38">
    <path d="M 392.539192 314.459396 
L 427.82773 314.459396 
L 427.82773 313.155194 
L 392.539192 313.155194 
z
" clip-path="url(#p984b9caec9)" style="fill: #2ca02c"/>
   </g>
   <g id="patch_39">
    <path d="M 436.649864 246.74121 
L 471.938402 246.74121 
L 471.938402 242.026018 
L 436.649864 242.026018 
z
" clip-path="url(#p984b9caec9)" style="fill: #2ca02c"/>
   </g>
   <g id="patch_40">
    <path d="M 480.760536 326.297538 
L 516.049074 326.297538 
L 516.049074 325.494952 
L 480.760536 325.494952 
z
" clip-path="url(#p984b9caec9)" style="fill: #2ca02c"/>
   </g>
   <g id="patch_41">
    <path d="M 524.871208 220.155552 
L 560.159746 220.155552 
L 560.159746 210.173389 
L 524.871208 210.173389 
z
" clip-path="url(#p984b9caec9)" style="fill: #2ca02c"/>
   </g>
   <g id="patch_42">
    <path d="M 568.98188 316.867154 
L 604.270417 316.867154 
L 604.270417 315.462628 
L 568.98188 315.462628 
z
" clip-path="url(#p984b9caec9)" style="fill: #2ca02c"/>
   </g>
   <g id="patch_43">
    <path d="M 613.092552 340.844408 
L 648.381089 340.844408 
L 648.381089 340.744085 
L 613.092552 340.744085 
z
" clip-path="url(#p984b9caec9)" style="fill: #2ca02c"/>
   </g>
   <g id="patch_44">
    <path d="M 657.203224 33.30352 
L 692.491761 33.30352 
L 692.491761 31.798671 
L 657.203224 31.798671 
z
" clip-path="url(#p984b9caec9)" style="fill: #2ca02c"/>
   </g>
   <g id="patch_45">
    <path d="M 83.764489 339.088751 
L 119.053026 339.088751 
L 119.053026 339.088751 
L 83.764489 339.088751 
z
" clip-path="url(#p984b9caec9)" style="fill: #d62728"/>
   </g>
   <g id="patch_46">
    <path d="M 127.875161 241.975856 
L 163.163698 241.975856 
L 163.163698 241.925694 
L 127.875161 241.925694 
z
" clip-path="url(#p984b9caec9)" style="fill: #d62728"/>
   </g>
   <g id="patch_47">
    <path d="M 171.985833 234.501775 
L 207.27437 234.501775 
L 207.27437 134.379183 
L 171.985833 134.379183 
z
" clip-path="url(#p984b9caec9)" style="fill: #d62728"/>
   </g>
   <g id="patch_48">
    <path d="M 216.096504 218.399895 
L 251.385042 218.399895 
L 251.385042 218.149087 
L 216.096504 218.149087 
z
" clip-path="url(#p984b9caec9)" style="fill: #d62728"/>
   </g>
   <g id="patch_49">
    <path d="M 260.207176 237.160341 
L 295.495714 237.160341 
L 295.495714 237.009856 
L 260.207176 237.009856 
z
" clip-path="url(#p984b9caec9)" style="fill: #d62728"/>
   </g>
   <g id="patch_50">
    <path d="M 304.317848 22.719418 
L 339.606386 22.719418 
L 339.606386 22.318125 
L 304.317848 22.318125 
z
" clip-path="url(#p984b9caec9)" style="fill: #d62728"/>
   </g>
   <g id="patch_51">
    <path d="M 348.42852 24.374751 
L 383.717058 24.374751 
L 383.717058 23.72265 
L 348.42852 23.72265 
z
" clip-path="url(#p984b9caec9)" style="fill: #d62728"/>
   </g>
   <g id="patch_52">
    <path d="M 392.539192 313.155194 
L 427.82773 313.155194 
L 427.82773 313.155194 
L 392.539192 313.155194 
z
" clip-path="url(#p984b9caec9)" style="fill: #d62728"/>
   </g>
   <g id="patch_53">
    <path d="M 436.649864 242.026018 
L 471.938402 242.026018 
L 471.938402 242.026018 
L 436.649864 242.026018 
z
" clip-path="url(#p984b9caec9)" style="fill: #d62728"/>
   </g>
   <g id="patch_54">
    <path d="M 480.760536 325.494952 
L 516.049074 325.494952 
L 516.049074 325.494952 
L 480.760536 325.494952 
z
" clip-path="url(#p984b9caec9)" style="fill: #d62728"/>
   </g>
   <g id="patch_55">
    <path d="M 524.871208 210.173389 
L 560.159746 210.173389 
L 560.159746 210.173389 
L 524.871208 210.173389 
z
" clip-path="url(#p984b9caec9)" style="fill: #d62728"/>
   </g>
   <g id="patch_56">
    <path d="M 568.98188 315.462628 
L 604.270417 315.462628 
L 604.270417 315.462628 
L 568.98188 315.462628 
z
" clip-path="url(#p984b9caec9)" style="fill: #d62728"/>
   </g>
   <g id="patch_57">
    <path d="M 613.092552 340.744085 
L 648.381089 340.744085 
L 648.381089 340.744085 
L 613.092552 340.744085 
z
" clip-path="url(#p984b9caec9)" style="fill: #d62728"/>
   </g>
   <g id="patch_58">
    <path d="M 657.203224 31.798671 
L 692.491761 31.798671 
L 692.491761 31.14657 
L 657.203224 31.14657 
z
" clip-path="url(#p984b9caec9)" style="fill: #d62728"/>
   </g>
   <g id="patch_59">
    <path d="M 83.764489 339.088751 
L 119.053026 339.088751 
L 119.053026 339.088751 
L 83.764489 339.088751 
z
" clip-path="url(#p984b9caec9)" style="fill: #9467bd"/>
   </g>
   <g id="patch_60">
    <path d="M 127.875161 241.925694 
L 163.163698 241.925694 
L 163.163698 241.925694 
L 127.875161 241.925694 
z
" clip-path="url(#p984b9caec9)" style="fill: #9467bd"/>
   </g>
   <g id="patch_61">
    <path d="M 171.985833 134.379183 
L 207.27437 134.379183 
L 207.27437 134.379183 
L 171.985833 134.379183 
z
" clip-path="url(#p984b9caec9)" style="fill: #9467bd"/>
   </g>
   <g id="patch_62">
    <path d="M 216.096504 218.149087 
L 251.385042 218.149087 
L 251.385042 218.098925 
L 216.096504 218.098925 
z
" clip-path="url(#p984b9caec9)" style="fill: #9467bd"/>
   </g>
   <g id="patch_63">
    <path d="M 260.207176 237.009856 
L 295.495714 237.009856 
L 295.495714 236.959694 
L 260.207176 236.959694 
z
" clip-path="url(#p984b9caec9)" style="fill: #9467bd"/>
   </g>
   <g id="patch_64">
    <path d="M 304.317848 22.318125 
L 339.606386 22.318125 
L 339.606386 22.318125 
L 304.317848 22.318125 
z
" clip-path="url(#p984b9caec9)" style="fill: #9467bd"/>
   </g>
   <g id="patch_65">
    <path d="M 348.42852 23.72265 
L 383.717058 23.72265 
L 383.717058 23.72265 
L 348.42852 23.72265 
z
" clip-path="url(#p984b9caec9)" style="fill: #9467bd"/>
   </g>
   <g id="patch_66">
    <path d="M 392.539192 313.155194 
L 427.82773 313.155194 
L 427.82773 313.155194 
L 392.539192 313.155194 
z
" clip-path="url(#p984b9caec9)" style="fill: #9467bd"/>
   </g>
   <g id="patch_67">
    <path d="M 436.649864 242.026018 
L 471.938402 242.026018 
L 471.938402 240.320523 
L 436.649864 240.320523 
z
" clip-path="url(#p984b9caec9)" style="fill: #9467bd"/>
   </g>
   <g id="patch_68">
    <path d="M 480.760536 325.494952 
L 516.049074 325.494952 
L 516.049074 325.344467 
L 480.760536 325.344467 
z
" clip-path="url(#p984b9caec9)" style="fill: #9467bd"/>
   </g>
   <g id="patch_69">
    <path d="M 524.871208 210.173389 
L 560.159746 210.173389 
L 560.159746 208.467894 
L 524.871208 208.467894 
z
" clip-path="url(#p984b9caec9)" style="fill: #9467bd"/>
   </g>
   <g id="patch_70">
    <path d="M 568.98188 315.462628 
L 604.270417 315.462628 
L 604.270417 315.462628 
L 568.98188 315.462628 
z
" clip-path="url(#p984b9caec9)" style="fill: #9467bd"/>
   </g>
   <g id="patch_71">
    <path d="M 613.092552 340.744085 
L 648.381089 340.744085 
L 648.381089 340.744085 
L 613.092552 340.744085 
z
" clip-path="url(#p984b9caec9)" style="fill: #9467bd"/>
   </g>
   <g id="patch_72">
    <path d="M 657.203224 31.14657 
L 692.491761 31.14657 
L 692.491761 31.14657 
L 657.203224 31.14657 
z
" clip-path="url(#p984b9caec9)" style="fill: #9467bd"/>
   </g>
   <g id="patch_73">
    <path d="M 83.764489 339.088751 
L 119.053026 339.088751 
L 119.053026 339.088751 
L 83.764489 339.088751 
z
" clip-path="url(#p984b9caec9)" style="fill: #8c564b"/>
   </g>
   <g id="patch_74">
    <path d="M 127.875161 241.925694 
L 163.163698 241.925694 
L 163.163698 241.925694 
L 127.875161 241.925694 
z
" clip-path="url(#p984b9caec9)" style="fill: #8c564b"/>
   </g>
   <g id="patch_75">
    <path d="M 171.985833 134.379183 
L 207.27437 134.379183 
L 207.27437 134.379183 
L 171.985833 134.379183 
z
" clip-path="url(#p984b9caec9)" style="fill: #8c564b"/>
   </g>
   <g id="patch_76">
    <path d="M 216.096504 218.098925 
L 251.385042 218.098925 
L 251.385042 218.098925 
L 216.096504 218.098925 
z
" clip-path="url(#p984b9caec9)" style="fill: #8c564b"/>
   </g>
   <g id="patch_77">
    <path d="M 260.207176 236.959694 
L 295.495714 236.959694 
L 295.495714 236.959694 
L 260.207176 236.959694 
z
" clip-path="url(#p984b9caec9)" style="fill: #8c564b"/>
   </g>
   <g id="patch_78">
    <path d="M 304.317848 22.318125 
L 339.606386 22.318125 
L 339.606386 22.318125 
L 304.317848 22.318125 
z
" clip-path="url(#p984b9caec9)" style="fill: #8c564b"/>
   </g>
   <g id="patch_79">
    <path d="M 348.42852 23.72265 
L 383.717058 23.72265 
L 383.717058 23.72265 
L 348.42852 23.72265 
z
" clip-path="url(#p984b9caec9)" style="fill: #8c564b"/>
   </g>
   <g id="patch_80">
    <path d="M 392.539192 313.155194 
L 427.82773 313.155194 
L 427.82773 313.155194 
L 392.539192 313.155194 
z
" clip-path="url(#p984b9caec9)" style="fill: #8c564b"/>
   </g>
   <g id="patch_81">
    <path d="M 436.649864 240.320523 
L 471.938402 240.320523 
L 471.938402 239.61826 
L 436.649864 239.61826 
z
" clip-path="url(#p984b9caec9)" style="fill: #8c564b"/>
   </g>
   <g id="patch_82">
    <path d="M 480.760536 325.344467 
L 516.049074 325.344467 
L 516.049074 325.344467 
L 480.760536 325.344467 
z
" clip-path="url(#p984b9caec9)" style="fill: #8c564b"/>
   </g>
   <g id="patch_83">
    <path d="M 524.871208 208.467894 
L 560.159746 208.467894 
L 560.159746 207.865955 
L 524.871208 207.865955 
z
" clip-path="url(#p984b9caec9)" style="fill: #8c564b"/>
   </g>
   <g id="patch_84">
    <path d="M 568.98188 315.462628 
L 604.270417 315.462628 
L 604.270417 315.462628 
L 568.98188 315.462628 
z
" clip-path="url(#p984b9caec9)" style="fill: #8c564b"/>
   </g>
   <g id="patch_85">
    <path d="M 613.092552 340.744085 
L 648.381089 340.744085 
L 648.381089 340.744085 
L 613.092552 340.744085 
z
" clip-path="url(#p984b9caec9)" style="fill: #8c564b"/>
   </g>
   <g id="patch_86">
    <path d="M 657.203224 31.14657 
L 692.491761 31.14657 
L 692.491761 31.14657 
L 657.203224 31.14657 
z
" clip-path="url(#p984b9caec9)" style="fill: #8c564b"/>
   </g>
   <g id="matplotlib.axis_1">
    <g id="xtick_1">
     <g id="line2d_1">
      <path d="M 101.408757 341.998125 
L 101.408757 22.318125 
" clip-path="url(#p984b9caec9)" style="fill: none; stroke: #b0b0b0; stroke-opacity: 0.25; stroke-width: 0.8; stroke-linecap: square"/>
     </g>
     <g id="line2d_2">
      <defs>
       <path id="mc3766e9d81" d="M 0 0 
L 0 3.5 
" style="stroke: #000000; stroke-width: 0.8"/>
      </defs>
      <g>
       <use xlink:href="#mc3766e9d81" x="101.408757" y="341.998125" style="stroke: #000000; stroke-width: 0.8"/>
      </g>
     </g>
     <g id="text_1">
      <!-- nan -->
      <g transform="translate(84.08493 364.980127) rotate(-30) scale(0.1 -0.1)">
       <defs>
        <path id="DejaVuSans-6e" d="M 3513 2113 
L 3513 0 
L 2938 0 
L 2938 2094 
Q 2938 2591 2744 2837 
Q 2550 3084 2163 3084 
Q 1697 3084 1428 2787 
Q 1159 2491 1159 1978 
L 1159 0 
L 581 0 
L 581 3500 
L 1159 3500 
L 1159 2956 
Q 1366 3272 1645 3428 
Q 1925 3584 2291 3584 
Q 2894 3584 3203 3211 
Q 3513 2838 3513 2113 
z
" transform="scale(0.015625)"/>
        <path id="DejaVuSans-61" d="M 2194 1759 
Q 1497 1759 1228 1600 
Q 959 1441 959 1056 
Q 959 750 1161 570 
Q 1363 391 1709 391 
Q 2188 391 2477 730 
Q 2766 1069 2766 1631 
L 2766 1759 
L 2194 1759 
z
M 3341 1997 
L 3341 0 
L 2766 0 
L 2766 531 
Q 2569 213 2275 61 
Q 1981 -91 1556 -91 
Q 1019 -91 701 211 
Q 384 513 384 1019 
Q 384 1609 779 1909 
Q 1175 2209 1959 2209 
L 2766 2209 
L 2766 2266 
Q 2766 2663 2505 2880 
Q 2244 3097 1772 3097 
Q 1472 3097 1187 3025 
Q 903 2953 641 2809 
L 641 3341 
Q 956 3463 1253 3523 
Q 1550 3584 1831 3584 
Q 2591 3584 2966 3190 
Q 3341 2797 3341 1997 
z
" transform="scale(0.015625)"/>
       </defs>
       <use xlink:href="#DejaVuSans-6e"/>
       <use xlink:href="#DejaVuSans-61" transform="translate(63.378906 0)"/>
       <use xlink:href="#DejaVuSans-6e" transform="translate(124.658203 0)"/>
      </g>
     </g>
    </g>
    <g id="xtick_2">
     <g id="line2d_3">
      <path d="M 145.519429 341.998125 
L 145.519429 22.318125 
" clip-path="url(#p984b9caec9)" style="fill: none; stroke: #b0b0b0; stroke-opacity: 0.25; stroke-width: 0.8; stroke-linecap: square"/>
     </g>
     <g id="line2d_4">
      <g>
       <use xlink:href="#mc3766e9d81" x="145.519429" y="341.998125" style="stroke: #000000; stroke-width: 0.8"/>
      </g>
     </g>
     <g id="text_2">
      <!-- nan -->
      <g transform="translate(128.195602 364.980127) rotate(-30) scale(0.1 -0.1)">
       <use xlink:href="#DejaVuSans-6e"/>
       <use xlink:href="#DejaVuSans-61" transform="translate(63.378906 0)"/>
       <use xlink:href="#DejaVuSans-6e" transform="translate(124.658203 0)"/>
      </g>
     </g>
    </g>
    <g id="xtick_3">
     <g id="line2d_5">
      <path d="M 189.630101 341.998125 
L 189.630101 22.318125 
" clip-path="url(#p984b9caec9)" style="fill: none; stroke: #b0b0b0; stroke-opacity: 0.25; stroke-width: 0.8; stroke-linecap: square"/>
     </g>
     <g id="line2d_6">
      <g>
       <use xlink:href="#mc3766e9d81" x="189.630101" y="341.998125" style="stroke: #000000; stroke-width: 0.8"/>
      </g>
     </g>
     <g id="text_3">
      <!-- nan -->
      <g transform="translate(172.306274 364.980127) rotate(-30) scale(0.1 -0.1)">
       <use xlink:href="#DejaVuSans-6e"/>
       <use xlink:href="#DejaVuSans-61" transform="translate(63.378906 0)"/>
       <use xlink:href="#DejaVuSans-6e" transform="translate(124.658203 0)"/>
      </g>
     </g>
    </g>
    <g id="xtick_4">
     <g id="line2d_7">
      <path d="M 233.740773 341.998125 
L 233.740773 22.318125 
" clip-path="url(#p984b9caec9)" style="fill: none; stroke: #b0b0b0; stroke-opacity: 0.25; stroke-width: 0.8; stroke-linecap: square"/>
     </g>
     <g id="line2d_8">
      <g>
       <use xlink:href="#mc3766e9d81" x="233.740773" y="341.998125" style="stroke: #000000; stroke-width: 0.8"/>
      </g>
     </g>
     <g id="text_4">
      <!-- nan -->
      <g transform="translate(216.416946 364.980127) rotate(-30) scale(0.1 -0.1)">
       <use xlink:href="#DejaVuSans-6e"/>
       <use xlink:href="#DejaVuSans-61" transform="translate(63.378906 0)"/>
       <use xlink:href="#DejaVuSans-6e" transform="translate(124.658203 0)"/>
      </g>
     </g>
    </g>
    <g id="xtick_5">
     <g id="line2d_9">
      <path d="M 277.851445 341.998125 
L 277.851445 22.318125 
" clip-path="url(#p984b9caec9)" style="fill: none; stroke: #b0b0b0; stroke-opacity: 0.25; stroke-width: 0.8; stroke-linecap: square"/>
     </g>
     <g id="line2d_10">
      <g>
       <use xlink:href="#mc3766e9d81" x="277.851445" y="341.998125" style="stroke: #000000; stroke-width: 0.8"/>
      </g>
     </g>
     <g id="text_5">
      <!-- nan -->
      <g transform="translate(260.527617 364.980127) rotate(-30) scale(0.1 -0.1)">
       <use xlink:href="#DejaVuSans-6e"/>
       <use xlink:href="#DejaVuSans-61" transform="translate(63.378906 0)"/>
       <use xlink:href="#DejaVuSans-6e" transform="translate(124.658203 0)"/>
      </g>
     </g>
    </g>
    <g id="xtick_6">
     <g id="line2d_11">
      <path d="M 321.962117 341.998125 
L 321.962117 22.318125 
" clip-path="url(#p984b9caec9)" style="fill: none; stroke: #b0b0b0; stroke-opacity: 0.25; stroke-width: 0.8; stroke-linecap: square"/>
     </g>
     <g id="line2d_12">
      <g>
       <use xlink:href="#mc3766e9d81" x="321.962117" y="341.998125" style="stroke: #000000; stroke-width: 0.8"/>
      </g>
     </g>
     <g id="text_6">
      <!-- nan -->
      <g transform="translate(304.638289 364.980127) rotate(-30) scale(0.1 -0.1)">
       <use xlink:href="#DejaVuSans-6e"/>
       <use xlink:href="#DejaVuSans-61" transform="translate(63.378906 0)"/>
       <use xlink:href="#DejaVuSans-6e" transform="translate(124.658203 0)"/>
      </g>
     </g>
    </g>
    <g id="xtick_7">
     <g id="line2d_13">
      <path d="M 366.072789 341.998125 
L 366.072789 22.318125 
" clip-path="url(#p984b9caec9)" style="fill: none; stroke: #b0b0b0; stroke-opacity: 0.25; stroke-width: 0.8; stroke-linecap: square"/>
     </g>
     <g id="line2d_14">
      <g>
       <use xlink:href="#mc3766e9d81" x="366.072789" y="341.998125" style="stroke: #000000; stroke-width: 0.8"/>
      </g>
     </g>
     <g id="text_7">
      <!-- nan -->
      <g transform="translate(348.748961 364.980127) rotate(-30) scale(0.1 -0.1)">
       <use xlink:href="#DejaVuSans-6e"/>
       <use xlink:href="#DejaVuSans-61" transform="translate(63.378906 0)"/>
       <use xlink:href="#DejaVuSans-6e" transform="translate(124.658203 0)"/>
      </g>
     </g>
    </g>
    <g id="xtick_8">
     <g id="line2d_15">
      <path d="M 410.183461 341.998125 
L 410.183461 22.318125 
" clip-path="url(#p984b9caec9)" style="fill: none; stroke: #b0b0b0; stroke-opacity: 0.25; stroke-width: 0.8; stroke-linecap: square"/>
     </g>
     <g id="line2d_16">
      <g>
       <use xlink:href="#mc3766e9d81" x="410.183461" y="341.998125" style="stroke: #000000; stroke-width: 0.8"/>
      </g>
     </g>
     <g id="text_8">
      <!-- nan -->
      <g transform="translate(392.859633 364.980127) rotate(-30) scale(0.1 -0.1)">
       <use xlink:href="#DejaVuSans-6e"/>
       <use xlink:href="#DejaVuSans-61" transform="translate(63.378906 0)"/>
       <use xlink:href="#DejaVuSans-6e" transform="translate(124.658203 0)"/>
      </g>
     </g>
    </g>
    <g id="xtick_9">
     <g id="line2d_17">
      <path d="M 454.294133 341.998125 
L 454.294133 22.318125 
" clip-path="url(#p984b9caec9)" style="fill: none; stroke: #b0b0b0; stroke-opacity: 0.25; stroke-width: 0.8; stroke-linecap: square"/>
     </g>
     <g id="line2d_18">
      <g>
       <use xlink:href="#mc3766e9d81" x="454.294133" y="341.998125" style="stroke: #000000; stroke-width: 0.8"/>
      </g>
     </g>
     <g id="text_9">
      <!-- nan -->
      <g transform="translate(436.970305 364.980127) rotate(-30) scale(0.1 -0.1)">
       <use xlink:href="#DejaVuSans-6e"/>
       <use xlink:href="#DejaVuSans-61" transform="translate(63.378906 0)"/>
       <use xlink:href="#DejaVuSans-6e" transform="translate(124.658203 0)"/>
      </g>
     </g>
    </g>
    <g id="xtick_10">
     <g id="line2d_19">
      <path d="M 498.404805 341.998125 
L 498.404805 22.318125 
" clip-path="url(#p984b9caec9)" style="fill: none; stroke: #b0b0b0; stroke-opacity: 0.25; stroke-width: 0.8; stroke-linecap: square"/>
     </g>
     <g id="line2d_20">
      <g>
       <use xlink:href="#mc3766e9d81" x="498.404805" y="341.998125" style="stroke: #000000; stroke-width: 0.8"/>
      </g>
     </g>
     <g id="text_10">
      <!-- nan -->
      <g transform="translate(481.080977 364.980127) rotate(-30) scale(0.1 -0.1)">
       <use xlink:href="#DejaVuSans-6e"/>
       <use xlink:href="#DejaVuSans-61" transform="translate(63.378906 0)"/>
       <use xlink:href="#DejaVuSans-6e" transform="translate(124.658203 0)"/>
      </g>
     </g>
    </g>
    <g id="xtick_11">
     <g id="line2d_21">
      <path d="M 542.515477 341.998125 
L 542.515477 22.318125 
" clip-path="url(#p984b9caec9)" style="fill: none; stroke: #b0b0b0; stroke-opacity: 0.25; stroke-width: 0.8; stroke-linecap: square"/>
     </g>
     <g id="line2d_22">
      <g>
       <use xlink:href="#mc3766e9d81" x="542.515477" y="341.998125" style="stroke: #000000; stroke-width: 0.8"/>
      </g>
     </g>
     <g id="text_11">
      <!-- nan -->
      <g transform="translate(525.191649 364.980127) rotate(-30) scale(0.1 -0.1)">
       <use xlink:href="#DejaVuSans-6e"/>
       <use xlink:href="#DejaVuSans-61" transform="translate(63.378906 0)"/>
       <use xlink:href="#DejaVuSans-6e" transform="translate(124.658203 0)"/>
      </g>
     </g>
    </g>
    <g id="xtick_12">
     <g id="line2d_23">
      <path d="M 586.626149 341.998125 
L 586.626149 22.318125 
" clip-path="url(#p984b9caec9)" style="fill: none; stroke: #b0b0b0; stroke-opacity: 0.25; stroke-width: 0.8; stroke-linecap: square"/>
     </g>
     <g id="line2d_24">
      <g>
       <use xlink:href="#mc3766e9d81" x="586.626149" y="341.998125" style="stroke: #000000; stroke-width: 0.8"/>
      </g>
     </g>
     <g id="text_12">
      <!-- nan -->
      <g transform="translate(569.302321 364.980127) rotate(-30) scale(0.1 -0.1)">
       <use xlink:href="#DejaVuSans-6e"/>
       <use xlink:href="#DejaVuSans-61" transform="translate(63.378906 0)"/>
       <use xlink:href="#DejaVuSans-6e" transform="translate(124.658203 0)"/>
      </g>
     </g>
    </g>
    <g id="xtick_13">
     <g id="line2d_25">
      <path d="M 630.736821 341.998125 
L 630.736821 22.318125 
" clip-path="url(#p984b9caec9)" style="fill: none; stroke: #b0b0b0; stroke-opacity: 0.25; stroke-width: 0.8; stroke-linecap: square"/>
     </g>
     <g id="line2d_26">
      <g>
       <use xlink:href="#mc3766e9d81" x="630.736821" y="341.998125" style="stroke: #000000; stroke-width: 0.8"/>
      </g>
     </g>
     <g id="text_13">
      <!-- nan -->
      <g transform="translate(613.412993 364.980127) rotate(-30) scale(0.1 -0.1)">
       <use xlink:href="#DejaVuSans-6e"/>
       <use xlink:href="#DejaVuSans-61" transform="translate(63.378906 0)"/>
       <use xlink:href="#DejaVuSans-6e" transform="translate(124.658203 0)"/>
      </g>
     </g>
    </g>
    <g id="xtick_14">
     <g id="line2d_27">
      <path d="M 674.847493 341.998125 
L 674.847493 22.318125 
" clip-path="url(#p984b9caec9)" style="fill: none; stroke: #b0b0b0; stroke-opacity: 0.25; stroke-width: 0.8; stroke-linecap: square"/>
     </g>
     <g id="line2d_28">
      <g>
       <use xlink:href="#mc3766e9d81" x="674.847493" y="341.998125" style="stroke: #000000; stroke-width: 0.8"/>
      </g>
     </g>
     <g id="text_14">
      <!-- nan -->
      <g transform="translate(657.523665 364.980127) rotate(-30) scale(0.1 -0.1)">
       <use xlink:href="#DejaVuSans-6e"/>
       <use xlink:href="#DejaVuSans-61" transform="translate(63.378906 0)"/>
       <use xlink:href="#DejaVuSans-6e" transform="translate(124.658203 0)"/>
      </g>
     </g>
    </g>
   </g>
   <g id="matplotlib.axis_2">
    <g id="ytick_1">
     <g id="line2d_29">
      <path d="M 53.328125 341.998125 
L 722.928125 341.998125 
" clip-path="url(#p984b9caec9)" style="fill: none; stroke: #b0b0b0; stroke-opacity: 0.25; stroke-width: 0.8; stroke-linecap: square"/>
     </g>
     <g id="line2d_30">
      <defs>
       <path id="m7010bc63b7" d="M 0 0 
L -3.5 0 
" style="stroke: #000000; stroke-width: 0.8"/>
      </defs>
      <g>
       <use xlink:href="#m7010bc63b7" x="53.328125" y="341.998125" style="stroke: #000000; stroke-width: 0.8"/>
      </g>
     </g>
     <g id="text_15">
      <!-- 0 -->
      <g transform="translate(39.965625 345.797344) scale(0.1 -0.1)">
       <defs>
        <path id="DejaVuSans-30" d="M 2034 4250 
Q 1547 4250 1301 3770 
Q 1056 3291 1056 2328 
Q 1056 1369 1301 889 
Q 1547 409 2034 409 
Q 2525 409 2770 889 
Q 3016 1369 3016 2328 
Q 3016 3291 2770 3770 
Q 2525 4250 2034 4250 
z
M 2034 4750 
Q 2819 4750 3233 4129 
Q 3647 3509 3647 2328 
Q 3647 1150 3233 529 
Q 2819 -91 2034 -91 
Q 1250 -91 836 529 
Q 422 1150 422 2328 
Q 422 3509 836 4129 
Q 1250 4750 2034 4750 
z
" transform="scale(0.015625)"/>
       </defs>
       <use xlink:href="#DejaVuSans-30"/>
      </g>
     </g>
    </g>
    <g id="ytick_2">
     <g id="line2d_31">
      <path d="M 53.328125 291.836506 
L 722.928125 291.836506 
" clip-path="url(#p984b9caec9)" style="fill: none; stroke: #b0b0b0; stroke-opacity: 0.25; stroke-width: 0.8; stroke-linecap: square"/>
     </g>
     <g id="line2d_32">
      <g>
       <use xlink:href="#m7010bc63b7" x="53.328125" y="291.836506" style="stroke: #000000; stroke-width: 0.8"/>
      </g>
     </g>
     <g id="text_16">
      <!-- 1000 -->
      <g transform="translate(20.878125 295.635724) scale(0.1 -0.1)">
       <defs>
        <path id="DejaVuSans-31" d="M 794 531 
L 1825 531 
L 1825 4091 
L 703 3866 
L 703 4441 
L 1819 4666 
L 2450 4666 
L 2450 531 
L 3481 531 
L 3481 0 
L 794 0 
L 794 531 
z
" transform="scale(0.015625)"/>
       </defs>
       <use xlink:href="#DejaVuSans-31"/>
       <use xlink:href="#DejaVuSans-30" transform="translate(63.623047 0)"/>
       <use xlink:href="#DejaVuSans-30" transform="translate(127.246094 0)"/>
       <use xlink:href="#DejaVuSans-30" transform="translate(190.869141 0)"/>
      </g>
     </g>
    </g>
    <g id="ytick_3">
     <g id="line2d_33">
      <path d="M 53.328125 241.674886 
L 722.928125 241.674886 
" clip-path="url(#p984b9caec9)" style="fill: none; stroke: #b0b0b0; stroke-opacity: 0.25; stroke-width: 0.8; stroke-linecap: square"/>
     </g>
     <g id="line2d_34">
      <g>
       <use xlink:href="#m7010bc63b7" x="53.328125" y="241.674886" style="stroke: #000000; stroke-width: 0.8"/>
      </g>
     </g>
     <g id="text_17">
      <!-- 2000 -->
      <g transform="translate(20.878125 245.474105) scale(0.1 -0.1)">
       <defs>
        <path id="DejaVuSans-32" d="M 1228 531 
L 3431 531 
L 3431 0 
L 469 0 
L 469 531 
Q 828 903 1448 1529 
Q 2069 2156 2228 2338 
Q 2531 2678 2651 2914 
Q 2772 3150 2772 3378 
Q 2772 3750 2511 3984 
Q 2250 4219 1831 4219 
Q 1534 4219 1204 4116 
Q 875 4013 500 3803 
L 500 4441 
Q 881 4594 1212 4672 
Q 1544 4750 1819 4750 
Q 2544 4750 2975 4387 
Q 3406 4025 3406 3419 
Q 3406 3131 3298 2873 
Q 3191 2616 2906 2266 
Q 2828 2175 2409 1742 
Q 1991 1309 1228 531 
z
" transform="scale(0.015625)"/>
       </defs>
       <use xlink:href="#DejaVuSans-32"/>
       <use xlink:href="#DejaVuSans-30" transform="translate(63.623047 0)"/>
       <use xlink:href="#DejaVuSans-30" transform="translate(127.246094 0)"/>
       <use xlink:href="#DejaVuSans-30" transform="translate(190.869141 0)"/>
      </g>
     </g>
    </g>
    <g id="ytick_4">
     <g id="line2d_35">
      <path d="M 53.328125 191.513267 
L 722.928125 191.513267 
" clip-path="url(#p984b9caec9)" style="fill: none; stroke: #b0b0b0; stroke-opacity: 0.25; stroke-width: 0.8; stroke-linecap: square"/>
     </g>
     <g id="line2d_36">
      <g>
       <use xlink:href="#m7010bc63b7" x="53.328125" y="191.513267" style="stroke: #000000; stroke-width: 0.8"/>
      </g>
     </g>
     <g id="text_18">
      <!-- 3000 -->
      <g transform="translate(20.878125 195.312486) scale(0.1 -0.1)">
       <defs>
        <path id="DejaVuSans-33" d="M 2597 2516 
Q 3050 2419 3304 2112 
Q 3559 1806 3559 1356 
Q 3559 666 3084 287 
Q 2609 -91 1734 -91 
Q 1441 -91 1130 -33 
Q 819 25 488 141 
L 488 750 
Q 750 597 1062 519 
Q 1375 441 1716 441 
Q 2309 441 2620 675 
Q 2931 909 2931 1356 
Q 2931 1769 2642 2001 
Q 2353 2234 1838 2234 
L 1294 2234 
L 1294 2753 
L 1863 2753 
Q 2328 2753 2575 2939 
Q 2822 3125 2822 3475 
Q 2822 3834 2567 4026 
Q 2313 4219 1838 4219 
Q 1578 4219 1281 4162 
Q 984 4106 628 3988 
L 628 4550 
Q 988 4650 1302 4700 
Q 1616 4750 1894 4750 
Q 2613 4750 3031 4423 
Q 3450 4097 3450 3541 
Q 3450 3153 3228 2886 
Q 3006 2619 2597 2516 
z
" transform="scale(0.015625)"/>
       </defs>
       <use xlink:href="#DejaVuSans-33"/>
       <use xlink:href="#DejaVuSans-30" transform="translate(63.623047 0)"/>
       <use xlink:href="#DejaVuSans-30" transform="translate(127.246094 0)"/>
       <use xlink:href="#DejaVuSans-30" transform="translate(190.869141 0)"/>
      </g>
     </g>
    </g>
    <g id="ytick_5">
     <g id="line2d_37">
      <path d="M 53.328125 141.351648 
L 722.928125 141.351648 
" clip-path="url(#p984b9caec9)" style="fill: none; stroke: #b0b0b0; stroke-opacity: 0.25; stroke-width: 0.8; stroke-linecap: square"/>
     </g>
     <g id="line2d_38">
      <g>
       <use xlink:href="#m7010bc63b7" x="53.328125" y="141.351648" style="stroke: #000000; stroke-width: 0.8"/>
      </g>
     </g>
     <g id="text_19">
      <!-- 4000 -->
      <g transform="translate(20.878125 145.150866) scale(0.1 -0.1)">
       <defs>
        <path id="DejaVuSans-34" d="M 2419 4116 
L 825 1625 
L 2419 1625 
L 2419 4116 
z
M 2253 4666 
L 3047 4666 
L 3047 1625 
L 3713 1625 
L 3713 1100 
L 3047 1100 
L 3047 0 
L 2419 0 
L 2419 1100 
L 313 1100 
L 313 1709 
L 2253 4666 
z
" transform="scale(0.015625)"/>
       </defs>
       <use xlink:href="#DejaVuSans-34"/>
       <use xlink:href="#DejaVuSans-30" transform="translate(63.623047 0)"/>
       <use xlink:href="#DejaVuSans-30" transform="translate(127.246094 0)"/>
       <use xlink:href="#DejaVuSans-30" transform="translate(190.869141 0)"/>
      </g>
     </g>
    </g>
    <g id="ytick_6">
     <g id="line2d_39">
      <path d="M 53.328125 91.190028 
L 722.928125 91.190028 
" clip-path="url(#p984b9caec9)" style="fill: none; stroke: #b0b0b0; stroke-opacity: 0.25; stroke-width: 0.8; stroke-linecap: square"/>
     </g>
     <g id="line2d_40">
      <g>
       <use xlink:href="#m7010bc63b7" x="53.328125" y="91.190028" style="stroke: #000000; stroke-width: 0.8"/>
      </g>
     </g>
     <g id="text_20">
      <!-- 5000 -->
      <g transform="translate(20.878125 94.989247) scale(0.1 -0.1)">
       <defs>
        <path id="DejaVuSans-35" d="M 691 4666 
L 3169 4666 
L 3169 4134 
L 1269 4134 
L 1269 2991 
Q 1406 3038 1543 3061 
Q 1681 3084 1819 3084 
Q 2600 3084 3056 2656 
Q 3513 2228 3513 1497 
Q 3513 744 3044 326 
Q 2575 -91 1722 -91 
Q 1428 -91 1123 -41 
Q 819 9 494 109 
L 494 744 
Q 775 591 1075 516 
Q 1375 441 1709 441 
Q 2250 441 2565 725 
Q 2881 1009 2881 1497 
Q 2881 1984 2565 2268 
Q 2250 2553 1709 2553 
Q 1456 2553 1204 2497 
Q 953 2441 691 2322 
L 691 4666 
z
" transform="scale(0.015625)"/>
       </defs>
       <use xlink:href="#DejaVuSans-35"/>
       <use xlink:href="#DejaVuSans-30" transform="translate(63.623047 0)"/>
       <use xlink:href="#DejaVuSans-30" transform="translate(127.246094 0)"/>
       <use xlink:href="#DejaVuSans-30" transform="translate(190.869141 0)"/>
      </g>
     </g>
    </g>
    <g id="ytick_7">
     <g id="line2d_41">
      <path d="M 53.328125 41.028409 
L 722.928125 41.028409 
" clip-path="url(#p984b9caec9)" style="fill: none; stroke: #b0b0b0; stroke-opacity: 0.25; stroke-width: 0.8; stroke-linecap: square"/>
     </g>
     <g id="line2d_42">
      <g>
       <use xlink:href="#m7010bc63b7" x="53.328125" y="41.028409" style="stroke: #000000; stroke-width: 0.8"/>
      </g>
     </g>
     <g id="text_21">
      <!-- 6000 -->
      <g transform="translate(20.878125 44.827628) scale(0.1 -0.1)">
       <defs>
        <path id="DejaVuSans-36" d="M 2113 2584 
Q 1688 2584 1439 2293 
Q 1191 2003 1191 1497 
Q 1191 994 1439 701 
Q 1688 409 2113 409 
Q 2538 409 2786 701 
Q 3034 994 3034 1497 
Q 3034 2003 2786 2293 
Q 2538 2584 2113 2584 
z
M 3366 4563 
L 3366 3988 
Q 3128 4100 2886 4159 
Q 2644 4219 2406 4219 
Q 1781 4219 1451 3797 
Q 1122 3375 1075 2522 
Q 1259 2794 1537 2939 
Q 1816 3084 2150 3084 
Q 2853 3084 3261 2657 
Q 3669 2231 3669 1497 
Q 3669 778 3244 343 
Q 2819 -91 2113 -91 
Q 1303 -91 875 529 
Q 447 1150 447 2328 
Q 447 3434 972 4092 
Q 1497 4750 2381 4750 
Q 2619 4750 2861 4703 
Q 3103 4656 3366 4563 
z
" transform="scale(0.015625)"/>
       </defs>
       <use xlink:href="#DejaVuSans-36"/>
       <use xlink:href="#DejaVuSans-30" transform="translate(63.623047 0)"/>
       <use xlink:href="#DejaVuSans-30" transform="translate(127.246094 0)"/>
       <use xlink:href="#DejaVuSans-30" transform="translate(190.869141 0)"/>
      </g>
     </g>
    </g>
    <g id="text_22">
     <!-- Количество эпизодов -->
     <g transform="translate(14.798438 238.944063) rotate(-90) scale(0.1 -0.1)">
      <defs>
       <path id="DejaVuSans-41a" d="M 628 4666 
L 1259 4666 
L 1259 2359 
L 3516 4666 
L 4325 4666 
L 2522 2822 
L 4419 0 
L 3731 0 
L 2113 2403 
L 1259 1531 
L 1259 0 
L 628 0 
L 628 4666 
z
" transform="scale(0.015625)"/>
       <path id="DejaVuSans-43e" d="M 1959 3097 
Q 1497 3097 1228 2736 
Q 959 2375 959 1747 
Q 959 1119 1226 758 
Q 1494 397 1959 397 
Q 2419 397 2687 759 
Q 2956 1122 2956 1747 
Q 2956 2369 2687 2733 
Q 2419 3097 1959 3097 
z
M 1959 3584 
Q 2709 3584 3137 3096 
Q 3566 2609 3566 1747 
Q 3566 888 3137 398 
Q 2709 -91 1959 -91 
Q 1206 -91 779 398 
Q 353 888 353 1747 
Q 353 2609 779 3096 
Q 1206 3584 1959 3584 
z
" transform="scale(0.015625)"/>
       <path id="DejaVuSans-43b" d="M 238 0 
L 238 478 
Q 806 566 981 959 
Q 1194 1513 1194 2928 
L 1194 3500 
L 3559 3500 
L 3559 0 
L 2984 0 
L 2984 3041 
L 1769 3041 
L 1769 2694 
Q 1769 1344 1494 738 
Q 1200 91 238 0 
z
" transform="scale(0.015625)"/>
       <path id="DejaVuSans-438" d="M 3578 3500 
L 3578 0 
L 3006 0 
L 3006 2809 
L 1319 0 
L 581 0 
L 581 3500 
L 1153 3500 
L 1153 697 
L 2838 3500 
L 3578 3500 
z
" transform="scale(0.015625)"/>
       <path id="DejaVuSans-447" d="M 2625 0 
L 2625 1472 
L 1553 1472 
Q 1075 1472 756 1769 
Q 469 2038 469 2613 
L 469 3500 
L 1044 3500 
L 1044 2666 
Q 1044 2300 1206 2116 
Q 1372 1931 1697 1931 
L 2625 1931 
L 2625 3500 
L 3200 3500 
L 3200 0 
L 2625 0 
z
" transform="scale(0.015625)"/>
       <path id="DejaVuSans-435" d="M 3597 1894 
L 3597 1613 
L 953 1613 
Q 991 1019 1311 708 
Q 1631 397 2203 397 
Q 2534 397 2845 478 
Q 3156 559 3463 722 
L 3463 178 
Q 3153 47 2828 -22 
Q 2503 -91 2169 -91 
Q 1331 -91 842 396 
Q 353 884 353 1716 
Q 353 2575 817 3079 
Q 1281 3584 2069 3584 
Q 2775 3584 3186 3129 
Q 3597 2675 3597 1894 
z
M 3022 2063 
Q 3016 2534 2758 2815 
Q 2500 3097 2075 3097 
Q 1594 3097 1305 2825 
Q 1016 2553 972 2059 
L 3022 2063 
z
" transform="scale(0.015625)"/>
       <path id="DejaVuSans-441" d="M 3122 3366 
L 3122 2828 
Q 2878 2963 2633 3030 
Q 2388 3097 2138 3097 
Q 1578 3097 1268 2742 
Q 959 2388 959 1747 
Q 959 1106 1268 751 
Q 1578 397 2138 397 
Q 2388 397 2633 464 
Q 2878 531 3122 666 
L 3122 134 
Q 2881 22 2623 -34 
Q 2366 -91 2075 -91 
Q 1284 -91 818 406 
Q 353 903 353 1747 
Q 353 2603 823 3093 
Q 1294 3584 2113 3584 
Q 2378 3584 2631 3529 
Q 2884 3475 3122 3366 
z
" transform="scale(0.015625)"/>
       <path id="DejaVuSans-442" d="M 188 3500 
L 3541 3500 
L 3541 3041 
L 2147 3041 
L 2147 0 
L 1581 0 
L 1581 3041 
L 188 3041 
L 188 3500 
z
" transform="scale(0.015625)"/>
       <path id="DejaVuSans-432" d="M 1156 1613 
L 1156 459 
L 1975 459 
Q 2369 459 2575 607 
Q 2781 756 2781 1038 
Q 2781 1319 2575 1466 
Q 2369 1613 1975 1613 
L 1156 1613 
z
M 1156 3041 
L 1156 2072 
L 1913 2072 
Q 2238 2072 2444 2201 
Q 2650 2331 2650 2563 
Q 2650 2794 2444 2917 
Q 2238 3041 1913 3041 
L 1156 3041 
z
M 581 3500 
L 1950 3500 
Q 2566 3500 2897 3275 
Q 3228 3050 3228 2634 
Q 3228 2313 3059 2123 
Q 2891 1934 2559 1888 
Q 2956 1813 3175 1575 
Q 3394 1338 3394 981 
Q 3394 513 3033 256 
Q 2672 0 2003 0 
L 581 0 
L 581 3500 
z
" transform="scale(0.015625)"/>
       <path id="DejaVuSans-20" transform="scale(0.015625)"/>
       <path id="DejaVuSans-44d" d="M 353 666 
Q 847 397 1338 397 
Q 1797 397 2125 664 
Q 2453 931 2513 1613 
L 738 1613 
L 738 2072 
L 2494 2072 
Q 2456 2400 2207 2748 
Q 1959 3097 1338 3097 
Q 856 3097 353 2828 
L 353 3366 
Q 844 3584 1363 3584 
Q 2181 3584 2651 3089 
Q 3122 2594 3122 1747 
Q 3122 903 2664 406 
Q 2206 -91 1403 -91 
Q 813 -91 353 134 
L 353 666 
z
" transform="scale(0.015625)"/>
       <path id="DejaVuSans-43f" d="M 3603 3500 
L 3603 0 
L 3025 0 
L 3025 3041 
L 1159 3041 
L 1159 0 
L 581 0 
L 581 3500 
L 3603 3500 
z
" transform="scale(0.015625)"/>
       <path id="DejaVuSans-437" d="M 2206 1888 
Q 2594 1813 2809 1584 
Q 3025 1356 3025 1019 
Q 3025 478 2622 193 
Q 2219 -91 1475 -91 
Q 1225 -91 961 -47 
Q 697 -3 416 84 
L 416 619 
Q 638 503 903 445 
Q 1169 388 1459 388 
Q 1931 388 2195 563 
Q 2459 738 2459 1019 
Q 2459 1294 2225 1461 
Q 1991 1628 1563 1628 
L 1100 1628 
L 1100 2103 
L 1584 2103 
Q 1947 2103 2158 2242 
Q 2369 2381 2369 2600 
Q 2369 2800 2151 2944 
Q 1934 3088 1563 3088 
Q 1341 3088 1089 3047 
Q 838 3006 534 2916 
L 534 3438 
Q 841 3513 1106 3550 
Q 1372 3588 1609 3588 
Q 2222 3588 2576 3342 
Q 2931 3097 2931 2656 
Q 2931 2366 2743 2164 
Q 2556 1963 2206 1888 
z
" transform="scale(0.015625)"/>
       <path id="DejaVuSans-434" d="M 1384 459 
L 3053 459 
L 3053 3041 
L 1844 3041 
L 1844 2603 
Q 1844 1316 1475 628 
L 1384 459 
z
M 550 459 
Q 834 584 959 850 
Q 1266 1509 1266 2838 
L 1266 3500 
L 3631 3500 
L 3631 459 
L 4091 459 
L 4091 -884 
L 3631 -884 
L 3631 0 
L 794 0 
L 794 -884 
L 334 -884 
L 334 459 
L 550 459 
z
" transform="scale(0.015625)"/>
      </defs>
      <use xlink:href="#DejaVuSans-41a"/>
      <use xlink:href="#DejaVuSans-43e" transform="translate(70.996094 0)"/>
      <use xlink:href="#DejaVuSans-43b" transform="translate(132.177734 0)"/>
      <use xlink:href="#DejaVuSans-438" transform="translate(196.09375 0)"/>
      <use xlink:href="#DejaVuSans-447" transform="translate(261.083984 0)"/>
      <use xlink:href="#DejaVuSans-435" transform="translate(320.166016 0)"/>
      <use xlink:href="#DejaVuSans-441" transform="translate(381.689453 0)"/>
      <use xlink:href="#DejaVuSans-442" transform="translate(436.669922 0)"/>
      <use xlink:href="#DejaVuSans-432" transform="translate(494.921875 0)"/>
      <use xlink:href="#DejaVuSans-43e" transform="translate(553.857422 0)"/>
      <use xlink:href="#DejaVuSans-20" transform="translate(615.039062 0)"/>
      <use xlink:href="#DejaVuSans-44d" transform="translate(646.826172 0)"/>
      <use xlink:href="#DejaVuSans-43f" transform="translate(701.708984 0)"/>
      <use xlink:href="#DejaVuSans-438" transform="translate(767.089844 0)"/>
      <use xlink:href="#DejaVuSans-437" transform="translate(832.080078 0)"/>
      <use xlink:href="#DejaVuSans-43e" transform="translate(885.253906 0)"/>
      <use xlink:href="#DejaVuSans-434" transform="translate(946.435547 0)"/>
      <use xlink:href="#DejaVuSans-43e" transform="translate(1015.576172 0)"/>
      <use xlink:href="#DejaVuSans-432" transform="translate(1076.757812 0)"/>
     </g>
    </g>
   </g>
   <g id="patch_87">
    <path d="M 53.328125 341.998125 
L 53.328125 22.318125 
" style="fill: none; stroke: #000000; stroke-width: 0.8; stroke-linejoin: miter; stroke-linecap: square"/>
   </g>
   <g id="patch_88">
    <path d="M 53.328125 341.998125 
L 722.928125 341.998125 
" style="fill: none; stroke: #000000; stroke-width: 0.8; stroke-linejoin: miter; stroke-linecap: square"/>
   </g>
   <g id="text_23">
    <!-- Распределение причин завершения эпизода -->
    <g transform="translate(246.193438 16.318125) scale(0.12 -0.12)">
     <defs>
      <path id="DejaVuSans-420" d="M 1259 4147 
L 1259 2394 
L 2053 2394 
Q 2494 2394 2734 2622 
Q 2975 2850 2975 3272 
Q 2975 3691 2734 3919 
Q 2494 4147 2053 4147 
L 1259 4147 
z
M 628 4666 
L 2053 4666 
Q 2838 4666 3239 4311 
Q 3641 3956 3641 3272 
Q 3641 2581 3239 2228 
Q 2838 1875 2053 1875 
L 1259 1875 
L 1259 0 
L 628 0 
L 628 4666 
z
" transform="scale(0.015625)"/>
      <path id="DejaVuSans-430" d="M 2194 1759 
Q 1497 1759 1228 1600 
Q 959 1441 959 1056 
Q 959 750 1161 570 
Q 1363 391 1709 391 
Q 2188 391 2477 730 
Q 2766 1069 2766 1631 
L 2766 1759 
L 2194 1759 
z
M 3341 1997 
L 3341 0 
L 2766 0 
L 2766 531 
Q 2569 213 2275 61 
Q 1981 -91 1556 -91 
Q 1019 -91 701 211 
Q 384 513 384 1019 
Q 384 1609 779 1909 
Q 1175 2209 1959 2209 
L 2766 2209 
L 2766 2266 
Q 2766 2663 2505 2880 
Q 2244 3097 1772 3097 
Q 1472 3097 1187 3025 
Q 903 2953 641 2809 
L 641 3341 
Q 956 3463 1253 3523 
Q 1550 3584 1831 3584 
Q 2591 3584 2966 3190 
Q 3341 2797 3341 1997 
z
" transform="scale(0.015625)"/>
      <path id="DejaVuSans-440" d="M 1159 525 
L 1159 -1331 
L 581 -1331 
L 581 3500 
L 1159 3500 
L 1159 2969 
Q 1341 3281 1617 3432 
Q 1894 3584 2278 3584 
Q 2916 3584 3314 3078 
Q 3713 2572 3713 1747 
Q 3713 922 3314 415 
Q 2916 -91 2278 -91 
Q 1894 -91 1617 61 
Q 1341 213 1159 525 
z
M 3116 1747 
Q 3116 2381 2855 2742 
Q 2594 3103 2138 3103 
Q 1681 3103 1420 2742 
Q 1159 2381 1159 1747 
Q 1159 1113 1420 752 
Q 1681 391 2138 391 
Q 2594 391 2855 752 
Q 3116 1113 3116 1747 
z
" transform="scale(0.015625)"/>
      <path id="DejaVuSans-43d" d="M 581 3500 
L 1159 3500 
L 1159 2072 
L 3025 2072 
L 3025 3500 
L 3603 3500 
L 3603 0 
L 3025 0 
L 3025 1613 
L 1159 1613 
L 1159 0 
L 581 0 
L 581 3500 
z
" transform="scale(0.015625)"/>
      <path id="DejaVuSans-448" d="M 3216 459 
L 4697 459 
L 4697 3500 
L 5275 3500 
L 5275 0 
L 581 0 
L 581 3500 
L 1159 3500 
L 1159 459 
L 2638 459 
L 2638 3500 
L 3216 3500 
L 3216 459 
z
" transform="scale(0.015625)"/>
      <path id="DejaVuSans-44f" d="M 1181 2491 
Q 1181 2231 1381 2084 
Q 1581 1938 1953 1938 
L 2728 1938 
L 2728 3041 
L 1953 3041 
Q 1581 3041 1381 2897 
Q 1181 2753 1181 2491 
z
M 363 0 
L 1431 1534 
Q 1069 1616 828 1830 
Q 588 2044 588 2491 
Q 588 2997 923 3248 
Q 1259 3500 1938 3500 
L 3306 3500 
L 3306 0 
L 2728 0 
L 2728 1478 
L 2013 1478 
L 981 0 
L 363 0 
z
" transform="scale(0.015625)"/>
     </defs>
     <use xlink:href="#DejaVuSans-420"/>
     <use xlink:href="#DejaVuSans-430" transform="translate(60.302734 0)"/>
     <use xlink:href="#DejaVuSans-441" transform="translate(121.582031 0)"/>
     <use xlink:href="#DejaVuSans-43f" transform="translate(176.5625 0)"/>
     <use xlink:href="#DejaVuSans-440" transform="translate(241.943359 0)"/>
     <use xlink:href="#DejaVuSans-435" transform="translate(305.419922 0)"/>
     <use xlink:href="#DejaVuSans-434" transform="translate(366.943359 0)"/>
     <use xlink:href="#DejaVuSans-435" transform="translate(436.083984 0)"/>
     <use xlink:href="#DejaVuSans-43b" transform="translate(497.607422 0)"/>
     <use xlink:href="#DejaVuSans-435" transform="translate(561.523438 0)"/>
     <use xlink:href="#DejaVuSans-43d" transform="translate(623.046875 0)"/>
     <use xlink:href="#DejaVuSans-438" transform="translate(688.427734 0)"/>
     <use xlink:href="#DejaVuSans-435" transform="translate(753.417969 0)"/>
     <use xlink:href="#DejaVuSans-20" transform="translate(814.941406 0)"/>
     <use xlink:href="#DejaVuSans-43f" transform="translate(846.728516 0)"/>
     <use xlink:href="#DejaVuSans-440" transform="translate(912.109375 0)"/>
     <use xlink:href="#DejaVuSans-438" transform="translate(975.585938 0)"/>
     <use xlink:href="#DejaVuSans-447" transform="translate(1040.576172 0)"/>
     <use xlink:href="#DejaVuSans-438" transform="translate(1099.658203 0)"/>
     <use xlink:href="#DejaVuSans-43d" transform="translate(1164.648438 0)"/>
     <use xlink:href="#DejaVuSans-20" transform="translate(1230.029297 0)"/>
     <use xlink:href="#DejaVuSans-437" transform="translate(1261.816406 0)"/>
     <use xlink:href="#DejaVuSans-430" transform="translate(1314.990234 0)"/>
     <use xlink:href="#DejaVuSans-432" transform="translate(1376.269531 0)"/>
     <use xlink:href="#DejaVuSans-435" transform="translate(1435.205078 0)"/>
     <use xlink:href="#DejaVuSans-440" transform="translate(1496.728516 0)"/>
     <use xlink:href="#DejaVuSans-448" transform="translate(1560.205078 0)"/>
     <use xlink:href="#DejaVuSans-435" transform="translate(1651.708984 0)"/>
     <use xlink:href="#DejaVuSans-43d" transform="translate(1713.232422 0)"/>
     <use xlink:href="#DejaVuSans-438" transform="translate(1778.613281 0)"/>
     <use xlink:href="#DejaVuSans-44f" transform="translate(1843.603516 0)"/>
     <use xlink:href="#DejaVuSans-20" transform="translate(1903.759766 0)"/>
     <use xlink:href="#DejaVuSans-44d" transform="translate(1935.546875 0)"/>
     <use xlink:href="#DejaVuSans-43f" transform="translate(1990.429688 0)"/>
     <use xlink:href="#DejaVuSans-438" transform="translate(2055.810547 0)"/>
     <use xlink:href="#DejaVuSans-437" transform="translate(2120.800781 0)"/>
     <use xlink:href="#DejaVuSans-43e" transform="translate(2173.974609 0)"/>
     <use xlink:href="#DejaVuSans-434" transform="translate(2235.15625 0)"/>
     <use xlink:href="#DejaVuSans-430" transform="translate(2304.296875 0)"/>
    </g>
   </g>
  </g>
  <g id="legend_1">
   <g id="patch_89">
    <path d="M 193.709922 379.932969 
L 207.709922 379.932969 
L 207.709922 375.032969 
L 193.709922 375.032969 
z
" style="fill: #1f77b4"/>
   </g>
   <g id="text_24">
    <!-- Столкновения -->
    <g transform="translate(213.309922 379.932969) scale(0.07 -0.07)">
     <defs>
      <path id="DejaVuSans-421" d="M 4122 4306 
L 4122 3641 
Q 3803 3938 3442 4084 
Q 3081 4231 2675 4231 
Q 1875 4231 1450 3742 
Q 1025 3253 1025 2328 
Q 1025 1406 1450 917 
Q 1875 428 2675 428 
Q 3081 428 3442 575 
Q 3803 722 4122 1019 
L 4122 359 
Q 3791 134 3420 21 
Q 3050 -91 2638 -91 
Q 1578 -91 968 557 
Q 359 1206 359 2328 
Q 359 3453 968 4101 
Q 1578 4750 2638 4750 
Q 3056 4750 3426 4639 
Q 3797 4528 4122 4306 
z
" transform="scale(0.015625)"/>
      <path id="DejaVuSans-43a" d="M 581 3500 
L 1153 3500 
L 1153 1856 
L 2775 3500 
L 3481 3500 
L 2144 2147 
L 3653 0 
L 3009 0 
L 1769 1766 
L 1153 1141 
L 1153 0 
L 581 0 
L 581 3500 
z
" transform="scale(0.015625)"/>
     </defs>
     <use xlink:href="#DejaVuSans-421"/>
     <use xlink:href="#DejaVuSans-442" transform="translate(69.824219 0)"/>
     <use xlink:href="#DejaVuSans-43e" transform="translate(128.076172 0)"/>
     <use xlink:href="#DejaVuSans-43b" transform="translate(189.257812 0)"/>
     <use xlink:href="#DejaVuSans-43a" transform="translate(253.173828 0)"/>
     <use xlink:href="#DejaVuSans-43d" transform="translate(313.574219 0)"/>
     <use xlink:href="#DejaVuSans-43e" transform="translate(378.955078 0)"/>
     <use xlink:href="#DejaVuSans-432" transform="translate(440.136719 0)"/>
     <use xlink:href="#DejaVuSans-435" transform="translate(499.072266 0)"/>
     <use xlink:href="#DejaVuSans-43d" transform="translate(560.595703 0)"/>
     <use xlink:href="#DejaVuSans-438" transform="translate(625.976562 0)"/>
     <use xlink:href="#DejaVuSans-44f" transform="translate(690.966797 0)"/>
    </g>
   </g>
   <g id="patch_90">
    <path d="M 193.709922 390.207656 
L 207.709922 390.207656 
L 207.709922 385.307656 
L 193.709922 385.307656 
z
" style="fill: #ff7f0e"/>
   </g>
   <g id="text_25">
    <!-- Успехи -->
    <g transform="translate(213.309922 390.207656) scale(0.07 -0.07)">
     <defs>
      <path id="DejaVuSans-423" d="M 2047 566 
Q 1981 409 1881 291 
Q 1634 0 850 0 
L 609 0 
L 609 531 
L 806 531 
Q 1178 531 1322 616 
Q 1409 669 1466 800 
L 1606 1131 
L 109 4666 
L 788 4666 
L 1947 1928 
L 3113 4666 
L 3791 4666 
L 2047 566 
z
" transform="scale(0.015625)"/>
      <path id="DejaVuSans-445" d="M 3513 3500 
L 2247 1797 
L 3578 0 
L 2900 0 
L 1881 1375 
L 863 0 
L 184 0 
L 1544 1831 
L 300 3500 
L 978 3500 
L 1906 2253 
L 2834 3500 
L 3513 3500 
z
" transform="scale(0.015625)"/>
     </defs>
     <use xlink:href="#DejaVuSans-423"/>
     <use xlink:href="#DejaVuSans-441" transform="translate(60.9375 0)"/>
     <use xlink:href="#DejaVuSans-43f" transform="translate(115.917969 0)"/>
     <use xlink:href="#DejaVuSans-435" transform="translate(181.298828 0)"/>
     <use xlink:href="#DejaVuSans-445" transform="translate(242.822266 0)"/>
     <use xlink:href="#DejaVuSans-438" transform="translate(302.001953 0)"/>
    </g>
   </g>
   <g id="patch_91">
    <path d="M 279.889766 379.932969 
L 293.889766 379.932969 
L 293.889766 375.032969 
L 279.889766 375.032969 
z
" style="fill: #2ca02c"/>
   </g>
   <g id="text_26">
    <!-- timeout_near_goal -->
    <g transform="translate(299.489766 379.932969) scale(0.07 -0.07)">
     <defs>
      <path id="DejaVuSans-74" d="M 1172 4494 
L 1172 3500 
L 2356 3500 
L 2356 3053 
L 1172 3053 
L 1172 1153 
Q 1172 725 1289 603 
Q 1406 481 1766 481 
L 2356 481 
L 2356 0 
L 1766 0 
Q 1100 0 847 248 
Q 594 497 594 1153 
L 594 3053 
L 172 3053 
L 172 3500 
L 594 3500 
L 594 4494 
L 1172 4494 
z
" transform="scale(0.015625)"/>
      <path id="DejaVuSans-69" d="M 603 3500 
L 1178 3500 
L 1178 0 
L 603 0 
L 603 3500 
z
M 603 4863 
L 1178 4863 
L 1178 4134 
L 603 4134 
L 603 4863 
z
" transform="scale(0.015625)"/>
      <path id="DejaVuSans-6d" d="M 3328 2828 
Q 3544 3216 3844 3400 
Q 4144 3584 4550 3584 
Q 5097 3584 5394 3201 
Q 5691 2819 5691 2113 
L 5691 0 
L 5113 0 
L 5113 2094 
Q 5113 2597 4934 2840 
Q 4756 3084 4391 3084 
Q 3944 3084 3684 2787 
Q 3425 2491 3425 1978 
L 3425 0 
L 2847 0 
L 2847 2094 
Q 2847 2600 2669 2842 
Q 2491 3084 2119 3084 
Q 1678 3084 1418 2786 
Q 1159 2488 1159 1978 
L 1159 0 
L 581 0 
L 581 3500 
L 1159 3500 
L 1159 2956 
Q 1356 3278 1631 3431 
Q 1906 3584 2284 3584 
Q 2666 3584 2933 3390 
Q 3200 3197 3328 2828 
z
" transform="scale(0.015625)"/>
      <path id="DejaVuSans-65" d="M 3597 1894 
L 3597 1613 
L 953 1613 
Q 991 1019 1311 708 
Q 1631 397 2203 397 
Q 2534 397 2845 478 
Q 3156 559 3463 722 
L 3463 178 
Q 3153 47 2828 -22 
Q 2503 -91 2169 -91 
Q 1331 -91 842 396 
Q 353 884 353 1716 
Q 353 2575 817 3079 
Q 1281 3584 2069 3584 
Q 2775 3584 3186 3129 
Q 3597 2675 3597 1894 
z
M 3022 2063 
Q 3016 2534 2758 2815 
Q 2500 3097 2075 3097 
Q 1594 3097 1305 2825 
Q 1016 2553 972 2059 
L 3022 2063 
z
" transform="scale(0.015625)"/>
      <path id="DejaVuSans-6f" d="M 1959 3097 
Q 1497 3097 1228 2736 
Q 959 2375 959 1747 
Q 959 1119 1226 758 
Q 1494 397 1959 397 
Q 2419 397 2687 759 
Q 2956 1122 2956 1747 
Q 2956 2369 2687 2733 
Q 2419 3097 1959 3097 
z
M 1959 3584 
Q 2709 3584 3137 3096 
Q 3566 2609 3566 1747 
Q 3566 888 3137 398 
Q 2709 -91 1959 -91 
Q 1206 -91 779 398 
Q 353 888 353 1747 
Q 353 2609 779 3096 
Q 1206 3584 1959 3584 
z
" transform="scale(0.015625)"/>
      <path id="DejaVuSans-75" d="M 544 1381 
L 544 3500 
L 1119 3500 
L 1119 1403 
Q 1119 906 1312 657 
Q 1506 409 1894 409 
Q 2359 409 2629 706 
Q 2900 1003 2900 1516 
L 2900 3500 
L 3475 3500 
L 3475 0 
L 2900 0 
L 2900 538 
Q 2691 219 2414 64 
Q 2138 -91 1772 -91 
Q 1169 -91 856 284 
Q 544 659 544 1381 
z
M 1991 3584 
L 1991 3584 
z
" transform="scale(0.015625)"/>
      <path id="DejaVuSans-5f" d="M 3263 -1063 
L 3263 -1509 
L -63 -1509 
L -63 -1063 
L 3263 -1063 
z
" transform="scale(0.015625)"/>
      <path id="DejaVuSans-72" d="M 2631 2963 
Q 2534 3019 2420 3045 
Q 2306 3072 2169 3072 
Q 1681 3072 1420 2755 
Q 1159 2438 1159 1844 
L 1159 0 
L 581 0 
L 581 3500 
L 1159 3500 
L 1159 2956 
Q 1341 3275 1631 3429 
Q 1922 3584 2338 3584 
Q 2397 3584 2469 3576 
Q 2541 3569 2628 3553 
L 2631 2963 
z
" transform="scale(0.015625)"/>
      <path id="DejaVuSans-67" d="M 2906 1791 
Q 2906 2416 2648 2759 
Q 2391 3103 1925 3103 
Q 1463 3103 1205 2759 
Q 947 2416 947 1791 
Q 947 1169 1205 825 
Q 1463 481 1925 481 
Q 2391 481 2648 825 
Q 2906 1169 2906 1791 
z
M 3481 434 
Q 3481 -459 3084 -895 
Q 2688 -1331 1869 -1331 
Q 1566 -1331 1297 -1286 
Q 1028 -1241 775 -1147 
L 775 -588 
Q 1028 -725 1275 -790 
Q 1522 -856 1778 -856 
Q 2344 -856 2625 -561 
Q 2906 -266 2906 331 
L 2906 616 
Q 2728 306 2450 153 
Q 2172 0 1784 0 
Q 1141 0 747 490 
Q 353 981 353 1791 
Q 353 2603 747 3093 
Q 1141 3584 1784 3584 
Q 2172 3584 2450 3431 
Q 2728 3278 2906 2969 
L 2906 3500 
L 3481 3500 
L 3481 434 
z
" transform="scale(0.015625)"/>
      <path id="DejaVuSans-6c" d="M 603 4863 
L 1178 4863 
L 1178 0 
L 603 0 
L 603 4863 
z
" transform="scale(0.015625)"/>
     </defs>
     <use xlink:href="#DejaVuSans-74"/>
     <use xlink:href="#DejaVuSans-69" transform="translate(39.208984 0)"/>
     <use xlink:href="#DejaVuSans-6d" transform="translate(66.992188 0)"/>
     <use xlink:href="#DejaVuSans-65" transform="translate(164.404297 0)"/>
     <use xlink:href="#DejaVuSans-6f" transform="translate(225.927734 0)"/>
     <use xlink:href="#DejaVuSans-75" transform="translate(287.109375 0)"/>
     <use xlink:href="#DejaVuSans-74" transform="translate(350.488281 0)"/>
     <use xlink:href="#DejaVuSans-5f" transform="translate(389.697266 0)"/>
     <use xlink:href="#DejaVuSans-6e" transform="translate(439.697266 0)"/>
     <use xlink:href="#DejaVuSans-65" transform="translate(503.076172 0)"/>
     <use xlink:href="#DejaVuSans-61" transform="translate(564.599609 0)"/>
     <use xlink:href="#DejaVuSans-72" transform="translate(625.878906 0)"/>
     <use xlink:href="#DejaVuSans-5f" transform="translate(666.992188 0)"/>
     <use xlink:href="#DejaVuSans-67" transform="translate(716.992188 0)"/>
     <use xlink:href="#DejaVuSans-6f" transform="translate(780.46875 0)"/>
     <use xlink:href="#DejaVuSans-61" transform="translate(841.650391 0)"/>
     <use xlink:href="#DejaVuSans-6c" transform="translate(902.929688 0)"/>
    </g>
   </g>
   <g id="patch_92">
    <path d="M 279.889766 390.402344 
L 293.889766 390.402344 
L 293.889766 385.502344 
L 279.889766 385.502344 
z
" style="fill: #d62728"/>
   </g>
   <g id="text_27">
    <!-- Вылеты за границу -->
    <g transform="translate(299.489766 390.402344) scale(0.07 -0.07)">
     <defs>
      <path id="DejaVuSans-412" d="M 1259 2228 
L 1259 519 
L 2272 519 
Q 2781 519 3026 730 
Q 3272 941 3272 1375 
Q 3272 1813 3026 2020 
Q 2781 2228 2272 2228 
L 1259 2228 
z
M 1259 4147 
L 1259 2741 
L 2194 2741 
Q 2656 2741 2882 2914 
Q 3109 3088 3109 3444 
Q 3109 3797 2882 3972 
Q 2656 4147 2194 4147 
L 1259 4147 
z
M 628 4666 
L 2241 4666 
Q 2963 4666 3353 4366 
Q 3744 4066 3744 3513 
Q 3744 3084 3544 2831 
Q 3344 2578 2956 2516 
Q 3422 2416 3680 2098 
Q 3938 1781 3938 1306 
Q 3938 681 3513 340 
Q 3088 0 2303 0 
L 628 0 
L 628 4666 
z
" transform="scale(0.015625)"/>
      <path id="DejaVuSans-44b" d="M 3907 3500 
L 4482 3500 
L 4482 0 
L 3907 0 
L 3907 3500 
z
M 4195 3584 
L 4195 3584 
z
M 2781 1038 
Q 2781 1319 2576 1466 
Q 2372 1613 1978 1613 
L 1159 1613 
L 1159 459 
L 1978 459 
Q 2372 459 2576 607 
Q 2781 756 2781 1038 
z
M 581 3500 
L 1159 3500 
L 1159 2072 
L 2003 2072 
Q 2672 2072 3033 1817 
Q 3394 1563 3394 1038 
Q 3394 513 3033 256 
Q 2672 0 2003 0 
L 581 0 
L 581 3500 
z
" transform="scale(0.015625)"/>
      <path id="DejaVuSans-433" d="M 581 0 
L 581 3500 
L 3050 3500 
L 3050 3041 
L 1159 3041 
L 1159 0 
L 581 0 
z
" transform="scale(0.015625)"/>
      <path id="DejaVuSans-446" d="M 3603 0 
L 581 0 
L 581 3500 
L 1159 3500 
L 1159 459 
L 3025 459 
L 3025 3500 
L 3603 3500 
L 3603 459 
L 4063 459 
L 4063 -884 
L 3603 -884 
L 3603 0 
z
" transform="scale(0.015625)"/>
      <path id="DejaVuSans-443" d="M 2059 -325 
Q 1816 -950 1584 -1140 
Q 1353 -1331 966 -1331 
L 506 -1331 
L 506 -850 
L 844 -850 
Q 1081 -850 1212 -737 
Q 1344 -625 1503 -206 
L 1606 56 
L 191 3500 
L 800 3500 
L 1894 763 
L 2988 3500 
L 3597 3500 
L 2059 -325 
z
" transform="scale(0.015625)"/>
     </defs>
     <use xlink:href="#DejaVuSans-412"/>
     <use xlink:href="#DejaVuSans-44b" transform="translate(68.603516 0)"/>
     <use xlink:href="#DejaVuSans-43b" transform="translate(147.558594 0)"/>
     <use xlink:href="#DejaVuSans-435" transform="translate(211.474609 0)"/>
     <use xlink:href="#DejaVuSans-442" transform="translate(272.998047 0)"/>
     <use xlink:href="#DejaVuSans-44b" transform="translate(331.25 0)"/>
     <use xlink:href="#DejaVuSans-20" transform="translate(410.205078 0)"/>
     <use xlink:href="#DejaVuSans-437" transform="translate(441.992188 0)"/>
     <use xlink:href="#DejaVuSans-430" transform="translate(495.166016 0)"/>
     <use xlink:href="#DejaVuSans-20" transform="translate(556.445312 0)"/>
     <use xlink:href="#DejaVuSans-433" transform="translate(588.232422 0)"/>
     <use xlink:href="#DejaVuSans-440" transform="translate(640.771484 0)"/>
     <use xlink:href="#DejaVuSans-430" transform="translate(704.248047 0)"/>
     <use xlink:href="#DejaVuSans-43d" transform="translate(765.527344 0)"/>
     <use xlink:href="#DejaVuSans-438" transform="translate(830.908203 0)"/>
     <use xlink:href="#DejaVuSans-446" transform="translate(895.898438 0)"/>
     <use xlink:href="#DejaVuSans-443" transform="translate(963.964844 0)"/>
    </g>
   </g>
   <g id="patch_93">
    <path d="M 385.110703 379.932969 
L 399.110703 379.932969 
L 399.110703 375.032969 
L 385.110703 375.032969 
z
" style="fill: #9467bd"/>
   </g>
   <g id="text_28">
    <!-- timeout_other -->
    <g transform="translate(404.710703 379.932969) scale(0.07 -0.07)">
     <defs>
      <path id="DejaVuSans-68" d="M 3513 2113 
L 3513 0 
L 2938 0 
L 2938 2094 
Q 2938 2591 2744 2837 
Q 2550 3084 2163 3084 
Q 1697 3084 1428 2787 
Q 1159 2491 1159 1978 
L 1159 0 
L 581 0 
L 581 4863 
L 1159 4863 
L 1159 2956 
Q 1366 3272 1645 3428 
Q 1925 3584 2291 3584 
Q 2894 3584 3203 3211 
Q 3513 2838 3513 2113 
z
" transform="scale(0.015625)"/>
     </defs>
     <use xlink:href="#DejaVuSans-74"/>
     <use xlink:href="#DejaVuSans-69" transform="translate(39.208984 0)"/>
     <use xlink:href="#DejaVuSans-6d" transform="translate(66.992188 0)"/>
     <use xlink:href="#DejaVuSans-65" transform="translate(164.404297 0)"/>
     <use xlink:href="#DejaVuSans-6f" transform="translate(225.927734 0)"/>
     <use xlink:href="#DejaVuSans-75" transform="translate(287.109375 0)"/>
     <use xlink:href="#DejaVuSans-74" transform="translate(350.488281 0)"/>
     <use xlink:href="#DejaVuSans-5f" transform="translate(389.697266 0)"/>
     <use xlink:href="#DejaVuSans-6f" transform="translate(439.697266 0)"/>
     <use xlink:href="#DejaVuSans-74" transform="translate(500.878906 0)"/>
     <use xlink:href="#DejaVuSans-68" transform="translate(540.087891 0)"/>
     <use xlink:href="#DejaVuSans-65" transform="translate(603.466797 0)"/>
     <use xlink:href="#DejaVuSans-72" transform="translate(664.990234 0)"/>
    </g>
   </g>
   <g id="patch_94">
    <path d="M 468.137266 379.932969 
L 482.137266 379.932969 
L 482.137266 375.032969 
L 468.137266 375.032969 
z
" style="fill: #8c564b"/>
   </g>
   <g id="text_29">
    <!-- timeout_no_progress -->
    <g transform="translate(487.737266 379.932969) scale(0.07 -0.07)">
     <defs>
      <path id="DejaVuSans-70" d="M 1159 525 
L 1159 -1331 
L 581 -1331 
L 581 3500 
L 1159 3500 
L 1159 2969 
Q 1341 3281 1617 3432 
Q 1894 3584 2278 3584 
Q 2916 3584 3314 3078 
Q 3713 2572 3713 1747 
Q 3713 922 3314 415 
Q 2916 -91 2278 -91 
Q 1894 -91 1617 61 
Q 1341 213 1159 525 
z
M 3116 1747 
Q 3116 2381 2855 2742 
Q 2594 3103 2138 3103 
Q 1681 3103 1420 2742 
Q 1159 2381 1159 1747 
Q 1159 1113 1420 752 
Q 1681 391 2138 391 
Q 2594 391 2855 752 
Q 3116 1113 3116 1747 
z
" transform="scale(0.015625)"/>
      <path id="DejaVuSans-73" d="M 2834 3397 
L 2834 2853 
Q 2591 2978 2328 3040 
Q 2066 3103 1784 3103 
Q 1356 3103 1142 2972 
Q 928 2841 928 2578 
Q 928 2378 1081 2264 
Q 1234 2150 1697 2047 
L 1894 2003 
Q 2506 1872 2764 1633 
Q 3022 1394 3022 966 
Q 3022 478 2636 193 
Q 2250 -91 1575 -91 
Q 1294 -91 989 -36 
Q 684 19 347 128 
L 347 722 
Q 666 556 975 473 
Q 1284 391 1588 391 
Q 1994 391 2212 530 
Q 2431 669 2431 922 
Q 2431 1156 2273 1281 
Q 2116 1406 1581 1522 
L 1381 1569 
Q 847 1681 609 1914 
Q 372 2147 372 2553 
Q 372 3047 722 3315 
Q 1072 3584 1716 3584 
Q 2034 3584 2315 3537 
Q 2597 3491 2834 3397 
z
" transform="scale(0.015625)"/>
     </defs>
     <use xlink:href="#DejaVuSans-74"/>
     <use xlink:href="#DejaVuSans-69" transform="translate(39.208984 0)"/>
     <use xlink:href="#DejaVuSans-6d" transform="translate(66.992188 0)"/>
     <use xlink:href="#DejaVuSans-65" transform="translate(164.404297 0)"/>
     <use xlink:href="#DejaVuSans-6f" transform="translate(225.927734 0)"/>
     <use xlink:href="#DejaVuSans-75" transform="translate(287.109375 0)"/>
     <use xlink:href="#DejaVuSans-74" transform="translate(350.488281 0)"/>
     <use xlink:href="#DejaVuSans-5f" transform="translate(389.697266 0)"/>
     <use xlink:href="#DejaVuSans-6e" transform="translate(439.697266 0)"/>
     <use xlink:href="#DejaVuSans-6f" transform="translate(503.076172 0)"/>
     <use xlink:href="#DejaVuSans-5f" transform="translate(564.257812 0)"/>
     <use xlink:href="#DejaVuSans-70" transform="translate(614.257812 0)"/>
     <use xlink:href="#DejaVuSans-72" transform="translate(677.734375 0)"/>
     <use xlink:href="#DejaVuSans-6f" transform="translate(716.597656 0)"/>
     <use xlink:href="#DejaVuSans-67" transform="translate(777.779297 0)"/>
     <use xlink:href="#DejaVuSans-72" transform="translate(841.255859 0)"/>
     <use xlink:href="#DejaVuSans-65" transform="translate(880.119141 0)"/>
     <use xlink:href="#DejaVuSans-73" transform="translate(941.642578 0)"/>
     <use xlink:href="#DejaVuSans-73" transform="translate(993.742188 0)"/>
    </g>
   </g>
  </g>
 </g>
 <defs>
  <clipPath id="p984b9caec9">
   <rect x="53.328125" y="22.318125" width="669.6" height="319.68"/>
  </clipPath>
 </defs>
</svg>
